# xmcd
#
# Track frame offsets:
#	150
#	11202
#	22237
#	34066
#	42777
#	52913
#	66651
#	76021
#	87342
#	97408
#	107475
#	117277
#	129398
#	143368
#	154461
#	165287
#	174445
#	185813
#	194944
#	204927
#
# Disc length: 2926 seconds
#
# Revision: 0
# Processed by: cddbd v1.5.2PL0 Copyright (c) Steve Scherf et al.
# Submitted via: audiograbber 1.83.01
#
DISCID=170b6c14
DTITLE=Rock n Roll Cowboys - CD1
DYEAR=2014
DGENRE=Country
TTITLE0=Marty Robbins - Singing the Blues
TTITLE1=Johnny Horton - The Battle of New Orleans
TTITLE2=Martin Rainwater - Whole Lotta Woman
TTITLE3=Don Gibson - Blue Blue Day
TTITLE4=Sonny James - Yo yo
TTITLE5=Bobby Bare - All American Boy
TTITLE6=Bob Luman - Let`s Think About Livin`
TTITLE7=Mitchell Torok - Caribbean
TTITLE8=Guy Mitchell - Rock-A-Billy
TTITLE9=Rusty and Doug Kershaw - Hey Mae
TTITLE10=George Jones - Just Little Boy Blue
TTITLE11=Carl Smith - Cut Across Shorty
TTITLE12=Chuck Manning - Let`s Go
TTITLE13=Stonewall Jackson - Waterloo
TTITLE14=Tracey Pendarvis - South Bound Line
TTITLE15=Jim Reeves - Overnight
TTITLE16=Billy Grammer - Gotta Travel On
TTITLE17=Hugh Barrett - Desertion At The Little Big Horn
TTITLE18=Hank Davis - One Way Track
TTITLE19=Johnny Horton - Sink the Bismarck
EXTD=
EXTT0=
EXTT1=
EXTT2=
EXTT3=
EXTT4=
EXTT5=
EXTT6=
EXTT7=
EXTT8=
EXTT9=
EXTT10=
EXTT11=
EXTT12=
EXTT13=
EXTT14=
EXTT15=
EXTT16=
EXTT17=
EXTT18=
EXTT19=
PLAYORDER=
